<?xml version="1.0" standalone="no"?>
<!DOCTYPE svg PUBLIC "-//W3C//DTD SVG 20010904//EN"
 "http://www.w3.org/TR/2001/REC-SVG-20010904/DTD/svg10.dtd">
<svg version="1.0" xmlns="http://www.w3.org/2000/svg"
 width="250.000000pt" height="250.000000pt" viewBox="0 0 250.000000 250.000000"
 preserveAspectRatio="xMidYMid meet">
<metadata>
Created by potrace 1.11, written by Peter Selinger 2001-2013
</metadata>
<g transform="translate(0.000000,250.000000) scale(0.100000,-0.100000)"
fill="#000000" stroke="none">
<path d="M990 2469 c-41 -16 -111 -42 -155 -58 -368 -133 -534 -196 -560 -214
-80 -54 -125 -113 -125 -163 0 -37 35 -95 73 -121 46 -31 973 -385 1010 -386
19 -1 96 27 187 67 85 38 232 102 325 143 94 41 184 81 200 89 17 7 111 49
210 93 99 44 184 86 189 94 7 10 3 23 -12 42 -12 15 -19 32 -15 38 14 23 -123
-2 -198 -36 -41 -19 -90 -42 -109 -50 -39 -17 -625 -271 -739 -321 l-75 -33
-60 23 c-34 12 -119 43 -191 69 -71 26 -152 55 -180 65 -27 10 -133 49 -235
85 -199 72 -236 89 -243 116 -13 48 23 102 79 118 32 9 83 -2 254 -57 429
-136 595 -184 629 -179 59 8 1065 420 1069 437 1 8 -6 20 -17 27 -20 12 -169
40 -396 73 -38 6 -77 12 -85 15 -8 2 -39 7 -69 10 -30 4 -63 9 -75 11 -12 2
-37 7 -56 10 -19 3 -46 8 -60 11 -14 3 -131 7 -260 9 l-235 3 -75 -30z m240
-64 c8 -2 32 -6 54 -10 21 -3 41 -7 45 -9 3 -2 28 -7 55 -10 27 -4 76 -13 110
-21 34 -8 72 -16 86 -18 36 -6 114 -21 120 -22 3 -1 24 -5 47 -9 24 -4 45 -12
49 -17 3 -5 -16 -19 -43 -30 -39 -17 -60 -20 -116 -15 -38 3 -72 8 -75 10 -6
4 -184 42 -242 52 -14 3 -70 14 -125 26 -198 41 -196 40 -122 70 39 16 108 17
157 3z"/>
<path d="M80 1911 c-22 -13 -22 -1224 0 -1265 15 -28 35 -42 140 -98 554 -295
854 -456 892 -479 51 -31 75 -29 87 5 4 11 7 319 6 682 -1 739 3 694 -73 733
-20 10 -147 65 -282 121 -266 111 -487 204 -535 225 -65 30 -204 85 -212 85
-4 0 -15 -5 -23 -9z m897 -492 c71 -49 120 -156 108 -235 -13 -91 -87 -134
-162 -95 -128 66 -189 245 -114 335 37 44 99 42 168 -5z m-331 -234 c67 -52
114 -140 114 -218 0 -46 -30 -97 -66 -115 -44 -21 -98 -5 -147 43 -60 58 -81
109 -82 193 0 70 1 75 32 102 27 24 39 28 74 25 24 -3 56 -15 75 -30z m-338
-209 c130 -68 182 -295 79 -344 -88 -42 -210 73 -224 211 -11 111 61 177 145
133z"/>
<path d="M1975 1746 c-620 -261 -636 -268 -657 -297 -18 -24 -19 -54 -20 -702
-1 -687 0 -709 35 -703 7 1 23 8 37 15 14 8 140 76 280 151 140 76 300 161
355 190 55 29 138 73 185 98 47 25 112 60 145 78 109 58 100 -2 100 704 0 338
-4 621 -8 628 -5 6 -16 12 -25 11 -9 0 -201 -78 -427 -173z m-176 -411 c70
-36 71 -169 1 -270 -32 -47 -78 -79 -126 -89 -89 -19 -148 76 -116 188 40 140
150 218 241 171z m372 -269 c8 -4 23 -20 33 -37 64 -108 -44 -316 -166 -321
-71 -2 -109 49 -103 138 10 143 136 260 236 220z"/>
</g>
</svg>
